<svg width="375" height="266" viewBox="0 0 375 266" fill="none" xmlns="http://www.w3.org/2000/svg">
<g filter="url(#filter0_d_442_1859)">
<mask id="mask0_442_1859" style="mask-type:alpha" maskUnits="userSpaceOnUse" x="16" y="24" width="343" height="216">
<rect x="16" y="24" width="343" height="216" rx="8" fill="#F7F7F7"/>
</mask>
<g mask="url(#mask0_442_1859)">
<g filter="url(#filter1_d_442_1859)">
<rect x="16" y="24" width="344" height="216" rx="8" fill="#2A2C36"/>
</g>
<path d="M227.5 161.5C207.204 158.502 183.838 160.679 165.418 163.642C144.515 167.005 122.696 164.38 104.493 153.567C80.4884 139.309 51.2911 136.779 25.1923 146.697L16.5 150L8 247H296L294.425 235.028C293.81 230.357 292.712 225.786 290.764 221.496C283.629 205.785 262.541 166.677 227.5 161.5Z" fill="url(#paint0_linear_442_1859)" fill-opacity="0.05"/>
<circle cx="326.5" cy="53.5" r="120.5" fill="url(#paint1_linear_442_1859)" fill-opacity="0.05"/>
</g>
<g clip-path="url(#clip0_442_1859)">
<path d="M308.817 207.876V206.221C308.817 205.587 308.433 205.173 307.775 205.173C307.445 205.173 307.089 205.283 306.842 205.642C306.65 205.338 306.375 205.173 305.964 205.173C305.689 205.173 305.415 205.256 305.195 205.559V205.228H304.619V207.876H305.195V206.414C305.195 205.945 305.442 205.725 305.826 205.725C306.211 205.725 306.403 205.973 306.403 206.414V207.876H306.979V206.414C306.979 205.945 307.253 205.725 307.61 205.725C307.994 205.725 308.186 205.973 308.186 206.414V207.876H308.817ZM317.351 205.228H316.418V204.428H315.842V205.228H315.321V205.752H315.842V206.966C315.842 207.572 316.089 207.931 316.748 207.931C316.995 207.931 317.269 207.848 317.461 207.738L317.297 207.241C317.132 207.352 316.94 207.379 316.803 207.379C316.528 207.379 316.418 207.214 316.418 206.938V205.752H317.351V205.228ZM322.236 205.173C321.907 205.173 321.687 205.338 321.55 205.559V205.228H320.974V207.876H321.55V206.386C321.55 205.945 321.742 205.697 322.099 205.697C322.208 205.697 322.346 205.725 322.455 205.752L322.62 205.201C322.51 205.173 322.346 205.173 322.236 205.173ZM314.854 205.449C314.58 205.256 314.196 205.173 313.784 205.173C313.126 205.173 312.687 205.504 312.687 206.028C312.687 206.469 313.016 206.717 313.592 206.8L313.866 206.828C314.168 206.883 314.333 206.966 314.333 207.103C314.333 207.297 314.113 207.434 313.729 207.434C313.345 207.434 313.043 207.297 312.851 207.159L312.577 207.6C312.879 207.821 313.29 207.931 313.702 207.931C314.47 207.931 314.909 207.572 314.909 207.076C314.909 206.607 314.553 206.359 314.004 206.276L313.729 206.249C313.482 206.221 313.29 206.166 313.29 206C313.29 205.807 313.482 205.697 313.784 205.697C314.113 205.697 314.443 205.835 314.607 205.918L314.854 205.449ZM330.166 205.173C329.837 205.173 329.617 205.338 329.48 205.559V205.228H328.904V207.876H329.48V206.386C329.48 205.945 329.672 205.697 330.029 205.697C330.139 205.697 330.276 205.725 330.386 205.752L330.55 205.201C330.441 205.173 330.276 205.173 330.166 205.173ZM322.812 206.552C322.812 207.352 323.361 207.931 324.212 207.931C324.596 207.931 324.87 207.848 325.145 207.627L324.87 207.159C324.651 207.324 324.431 207.407 324.184 207.407C323.718 207.407 323.388 207.076 323.388 206.552C323.388 206.056 323.718 205.725 324.184 205.697C324.431 205.697 324.651 205.78 324.87 205.945L325.145 205.476C324.87 205.256 324.596 205.173 324.212 205.173C323.361 205.173 322.812 205.752 322.812 206.552ZM328.136 206.552V205.228H327.559V205.559C327.367 205.311 327.093 205.173 326.736 205.173C325.995 205.173 325.419 205.752 325.419 206.552C325.419 207.352 325.995 207.931 326.736 207.931C327.12 207.931 327.395 207.793 327.559 207.545V207.876H328.136V206.552ZM326.023 206.552C326.023 206.083 326.325 205.697 326.818 205.697C327.285 205.697 327.614 206.056 327.614 206.552C327.614 207.021 327.285 207.407 326.818 207.407C326.325 207.379 326.023 207.021 326.023 206.552ZM319.135 205.173C318.367 205.173 317.818 205.725 317.818 206.552C317.818 207.379 318.367 207.931 319.163 207.931C319.547 207.931 319.931 207.821 320.233 207.572L319.958 207.159C319.739 207.324 319.464 207.434 319.19 207.434C318.833 207.434 318.477 207.269 318.394 206.8H320.342V206.58C320.37 205.725 319.876 205.173 319.135 205.173ZM319.135 205.669C319.492 205.669 319.739 205.89 319.794 206.304H318.422C318.477 205.945 318.723 205.669 319.135 205.669ZM333.432 206.552V204.18H332.855V205.559C332.663 205.311 332.389 205.173 332.032 205.173C331.291 205.173 330.715 205.752 330.715 206.552C330.715 207.352 331.291 207.931 332.032 207.931C332.416 207.931 332.691 207.793 332.855 207.545V207.876H333.432V206.552ZM331.319 206.552C331.319 206.083 331.621 205.697 332.114 205.697C332.581 205.697 332.91 206.056 332.91 206.552C332.91 207.021 332.581 207.407 332.114 207.407C331.621 207.379 331.319 207.021 331.319 206.552ZM312.055 206.552V205.228H311.479V205.559C311.287 205.311 311.013 205.173 310.656 205.173C309.915 205.173 309.339 205.752 309.339 206.552C309.339 207.352 309.915 207.931 310.656 207.931C311.04 207.931 311.315 207.793 311.479 207.545V207.876H312.055V206.552ZM309.915 206.552C309.915 206.083 310.217 205.697 310.711 205.697C311.177 205.697 311.507 206.056 311.507 206.552C311.507 207.021 311.177 207.407 310.711 207.407C310.217 207.379 309.915 207.021 309.915 206.552Z" fill="white"/>
<path d="M323.306 185.124H314.662V200.733H323.306V185.124Z" fill="#FF5F00"/>
<path d="M315.211 192.928C315.211 189.757 316.693 186.944 318.97 185.124C317.297 183.8 315.184 183 312.879 183C307.418 183 303 187.44 303 192.928C303 198.416 307.418 202.857 312.879 202.857C315.184 202.857 317.297 202.057 318.97 200.733C316.693 198.94 315.211 196.1 315.211 192.928Z" fill="#EB001B"/>
<path d="M334.968 192.928C334.968 198.416 330.55 202.857 325.09 202.857C322.785 202.857 320.672 202.057 318.998 200.733C321.303 198.913 322.757 196.1 322.757 192.928C322.757 189.757 321.275 186.944 318.998 185.124C320.672 183.8 322.785 183 325.09 183C330.55 183 334.968 187.468 334.968 192.928Z" fill="#F79E1B"/>
</g>
<mask id="mask1_442_1859" style="mask-type:alpha" maskUnits="userSpaceOnUse" x="40" y="58" width="32" height="24">
<rect x="40" y="58" width="32" height="24" rx="8" fill="#FFBA49"/>
</mask>
<g mask="url(#mask1_442_1859)">
<rect x="40" y="58" width="32" height="24" rx="8" fill="#FFBA49"/>
<rect x="34" y="60" width="20" height="7" rx="2.5" stroke="#D29634" stroke-width="0.3"/>
<rect x="34" y="67" width="20" height="7" rx="2.5" stroke="#D29634" stroke-width="0.3"/>
<rect x="34" y="74" width="20" height="7" rx="2.5" stroke="#D29634" stroke-width="0.3"/>
<rect x="59" y="60" width="20" height="7" rx="2.5" stroke="#D29634" stroke-width="0.3"/>
<rect x="59" y="67" width="20" height="7" rx="2.5" stroke="#D29634" stroke-width="0.3"/>
<rect x="59" y="74" width="20" height="7" rx="2.5" stroke="#D29634" stroke-width="0.3"/>
</g>
  <!-- This is for card number -->
<path d="M44.8268 120.456C45.2828 120.456 45.6428 120.12 45.6428 119.736C45.6428 118.824 45.2828 117.816 45.1628 116.904C45.8828 117.456 46.5788 118.272 47.3708 118.728C47.7068 118.92 48.1868 118.776 48.4028 118.392C48.6428 117.984 48.4988 117.528 48.1628 117.336C47.3948 116.88 46.3388 116.664 45.4748 116.304C46.3388 115.944 47.3948 115.752 48.1628 115.296C48.4988 115.104 48.6428 114.624 48.4028 114.24C48.1868 113.832 47.7068 113.688 47.3708 113.904C46.5788 114.36 45.8828 115.152 45.1388 115.704C45.2588 114.792 45.6188 113.784 45.6188 112.872C45.6188 112.488 45.2588 112.152 44.8028 112.152C44.3708 112.152 44.0108 112.488 44.0108 112.872C44.0108 113.784 44.3468 114.792 44.4668 115.704C43.7468 115.152 43.0508 114.336 42.2588 113.88C41.9228 113.688 41.4428 113.832 41.2268 114.216C40.9868 114.624 41.1068 115.08 41.4428 115.272C42.2348 115.728 43.2668 115.944 44.1308 116.304C43.2908 116.664 42.2348 116.856 41.4428 117.312C41.1068 117.504 40.9868 117.984 41.2268 118.368C41.4428 118.776 41.9228 118.92 42.2588 118.704C43.0508 118.248 43.7228 117.456 44.4668 116.904C44.3468 117.816 44.0108 118.824 44.0108 119.736C44.0108 120.12 44.3708 120.456 44.8268 120.456ZM60.4405 120.456C60.8965 120.456 61.2565 120.12 61.2565 119.736C61.2565 118.824 60.8965 117.816 60.7765 116.904C61.4965 117.456 62.1925 118.272 62.9845 118.728C63.3205 118.92 63.8005 118.776 64.0165 118.392C64.2565 117.984 64.1125 117.528 63.7765 117.336C63.0085 116.88 61.9525 116.664 61.0885 116.304C61.9525 115.944 63.0085 115.752 63.7765 115.296C64.1125 115.104 64.2565 114.624 64.0165 114.24C63.8005 113.832 63.3205 113.688 62.9845 113.904C62.1925 114.36 61.4965 115.152 60.7525 115.704C60.8725 114.792 61.2325 113.784 61.2325 112.872C61.2325 112.488 60.8725 112.152 60.4165 112.152C59.9845 112.152 59.6245 112.488 59.6245 112.872C59.6245 113.784 59.9605 114.792 60.0805 115.704C59.3605 115.152 58.6645 114.336 57.8725 113.88C57.5365 113.688 57.0565 113.832 56.8405 114.216C56.6005 114.624 56.7205 115.08 57.0565 115.272C57.8485 115.728 58.8805 115.944 59.7445 116.304C58.9045 116.664 57.8485 116.856 57.0565 117.312C56.7205 117.504 56.6005 117.984 56.8405 118.368C57.0565 118.776 57.5365 118.92 57.8725 118.704C58.6645 118.248 59.3365 117.456 60.0805 116.904C59.9605 117.816 59.6245 118.824 59.6245 119.736C59.6245 120.12 59.9845 120.456 60.4405 120.456ZM76.0542 120.456C76.5102 120.456 76.8702 120.12 76.8702 119.736C76.8702 118.824 76.5102 117.816 76.3902 116.904C77.1102 117.456 77.8062 118.272 78.5982 118.728C78.9342 118.92 79.4142 118.776 79.6302 118.392C79.8702 117.984 79.7262 117.528 79.3902 117.336C78.6222 116.88 77.5662 116.664 76.7022 116.304C77.5662 115.944 78.6222 115.752 79.3902 115.296C79.7262 115.104 79.8702 114.624 79.6302 114.24C79.4142 113.832 78.9342 113.688 78.5982 113.904C77.8062 114.36 77.1102 115.152 76.3662 115.704C76.4862 114.792 76.8462 113.784 76.8462 112.872C76.8462 112.488 76.4862 112.152 76.0302 112.152C75.5982 112.152 75.2382 112.488 75.2382 112.872C75.2382 113.784 75.5742 114.792 75.6942 115.704C74.9742 115.152 74.2782 114.336 73.4862 113.88C73.1502 113.688 72.6702 113.832 72.4542 114.216C72.2142 114.624 72.3342 115.08 72.6702 115.272C73.4622 115.728 74.4942 115.944 75.3582 116.304C74.5182 116.664 73.4622 116.856 72.6702 117.312C72.3342 117.504 72.2142 117.984 72.4542 118.368C72.6702 118.776 73.1502 118.92 73.4862 118.704C74.2782 118.248 74.9502 117.456 75.6942 116.904C75.5742 117.816 75.2382 118.824 75.2382 119.736C75.2382 120.12 75.5982 120.456 76.0542 120.456ZM91.6679 120.456C92.1239 120.456 92.4839 120.12 92.4839 119.736C92.4839 118.824 92.1239 117.816 92.0039 116.904C92.7239 117.456 93.4199 118.272 94.2119 118.728C94.5479 118.92 95.0279 118.776 95.2439 118.392C95.4839 117.984 95.3399 117.528 95.0039 117.336C94.2359 116.88 93.1799 116.664 92.3159 116.304C93.1799 115.944 94.2359 115.752 95.0039 115.296C95.3399 115.104 95.4839 114.624 95.2439 114.24C95.0279 113.832 94.5479 113.688 94.2119 113.904C93.4199 114.36 92.7239 115.152 91.9799 115.704C92.0999 114.792 92.4599 113.784 92.4599 112.872C92.4599 112.488 92.0999 112.152 91.6439 112.152C91.2119 112.152 90.8519 112.488 90.8519 112.872C90.8519 113.784 91.1879 114.792 91.3079 115.704C90.5879 115.152 89.8919 114.336 89.0999 113.88C88.7639 113.688 88.2839 113.832 88.0679 114.216C87.8279 114.624 87.9479 115.08 88.2839 115.272C89.0759 115.728 90.1079 115.944 90.9719 116.304C90.1319 116.664 89.0759 116.856 88.2839 117.312C87.9479 117.504 87.8279 117.984 88.0679 118.368C88.2839 118.776 88.7639 118.92 89.0999 118.704C89.8919 118.248 90.5639 117.456 91.3079 116.904C91.1879 117.816 90.8519 118.824 90.8519 119.736C90.8519 120.12 91.2119 120.456 91.6679 120.456ZM113.67 120.456C114.126 120.456 114.486 120.12 114.486 119.736C114.486 118.824 114.126 117.816 114.006 116.904C114.726 117.456 115.422 118.272 116.214 118.728C116.55 118.92 117.03 118.776 117.246 118.392C117.486 117.984 117.342 117.528 117.006 117.336C116.238 116.88 115.182 116.664 114.318 116.304C115.182 115.944 116.238 115.752 117.006 115.296C117.342 115.104 117.486 114.624 117.246 114.24C117.03 113.832 116.55 113.688 116.214 113.904C115.422 114.36 114.726 115.152 113.982 115.704C114.102 114.792 114.462 113.784 114.462 112.872C114.462 112.488 114.102 112.152 113.646 112.152C113.214 112.152 112.854 112.488 112.854 112.872C112.854 113.784 113.19 114.792 113.31 115.704C112.59 115.152 111.894 114.336 111.102 113.88C110.766 113.688 110.286 113.832 110.07 114.216C109.83 114.624 109.95 115.08 110.286 115.272C111.078 115.728 112.11 115.944 112.974 116.304C112.134 116.664 111.078 116.856 110.286 117.312C109.95 117.504 109.83 117.984 110.07 118.368C110.286 118.776 110.766 118.92 111.102 118.704C111.894 118.248 112.566 117.456 113.31 116.904C113.19 117.816 112.854 118.824 112.854 119.736C112.854 120.12 113.214 120.456 113.67 120.456ZM129.284 120.456C129.74 120.456 130.1 120.12 130.1 119.736C130.1 118.824 129.74 117.816 129.62 116.904C130.34 117.456 131.036 118.272 131.828 118.728C132.164 118.92 132.644 118.776 132.86 118.392C133.1 117.984 132.956 117.528 132.62 117.336C131.852 116.88 130.796 116.664 129.932 116.304C130.796 115.944 131.852 115.752 132.62 115.296C132.956 115.104 133.1 114.624 132.86 114.24C132.644 113.832 132.164 113.688 131.828 113.904C131.036 114.36 130.34 115.152 129.596 115.704C129.716 114.792 130.076 113.784 130.076 112.872C130.076 112.488 129.716 112.152 129.26 112.152C128.828 112.152 128.468 112.488 128.468 112.872C128.468 113.784 128.804 114.792 128.924 115.704C128.204 115.152 127.508 114.336 126.716 113.88C126.38 113.688 125.9 113.832 125.684 114.216C125.444 114.624 125.564 115.08 125.9 115.272C126.692 115.728 127.724 115.944 128.588 116.304C127.748 116.664 126.692 116.856 125.9 117.312C125.564 117.504 125.444 117.984 125.684 118.368C125.9 118.776 126.38 118.92 126.716 118.704C127.508 118.248 128.18 117.456 128.924 116.904C128.804 117.816 128.468 118.824 128.468 119.736C128.468 120.12 128.828 120.456 129.284 120.456ZM144.898 120.456C145.354 120.456 145.714 120.12 145.714 119.736C145.714 118.824 145.354 117.816 145.234 116.904C145.954 117.456 146.65 118.272 147.442 118.728C147.778 118.92 148.258 118.776 148.474 118.392C148.714 117.984 148.57 117.528 148.234 117.336C147.466 116.88 146.41 116.664 145.546 116.304C146.41 115.944 147.466 115.752 148.234 115.296C148.57 115.104 148.714 114.624 148.474 114.24C148.258 113.832 147.778 113.688 147.442 113.904C146.65 114.36 145.954 115.152 145.21 115.704C145.33 114.792 145.69 113.784 145.69 112.872C145.69 112.488 145.33 112.152 144.874 112.152C144.442 112.152 144.082 112.488 144.082 112.872C144.082 113.784 144.418 114.792 144.538 115.704C143.818 115.152 143.122 114.336 142.33 113.88C141.994 113.688 141.514 113.832 141.298 114.216C141.058 114.624 141.178 115.08 141.514 115.272C142.306 115.728 143.338 115.944 144.202 116.304C143.362 116.664 142.306 116.856 141.514 117.312C141.178 117.504 141.058 117.984 141.298 118.368C141.514 118.776 141.994 118.92 142.33 118.704C143.122 118.248 143.794 117.456 144.538 116.904C144.418 117.816 144.082 118.824 144.082 119.736C144.082 120.12 144.442 120.456 144.898 120.456ZM160.511 120.456C160.967 120.456 161.327 120.12 161.327 119.736C161.327 118.824 160.967 117.816 160.847 116.904C161.567 117.456 162.263 118.272 163.055 118.728C163.391 118.92 163.871 118.776 164.087 118.392C164.327 117.984 164.183 117.528 163.847 117.336C163.079 116.88 162.023 116.664 161.159 116.304C162.023 115.944 163.079 115.752 163.847 115.296C164.183 115.104 164.327 114.624 164.087 114.24C163.871 113.832 163.391 113.688 163.055 113.904C162.263 114.36 161.567 115.152 160.823 115.704C160.943 114.792 161.303 113.784 161.303 112.872C161.303 112.488 160.943 112.152 160.487 112.152C160.055 112.152 159.695 112.488 159.695 112.872C159.695 113.784 160.031 114.792 160.151 115.704C159.431 115.152 158.735 114.336 157.943 113.88C157.607 113.688 157.127 113.832 156.911 114.216C156.671 114.624 156.791 115.08 157.127 115.272C157.919 115.728 158.951 115.944 159.815 116.304C158.975 116.664 157.919 116.856 157.127 117.312C156.791 117.504 156.671 117.984 156.911 118.368C157.127 118.776 157.607 118.92 157.943 118.704C158.735 118.248 159.407 117.456 160.151 116.904C160.031 117.816 159.695 118.824 159.695 119.736C159.695 120.12 160.055 120.456 160.511 120.456ZM182.514 120.456C182.97 120.456 183.33 120.12 183.33 119.736C183.33 118.824 182.97 117.816 182.85 116.904C183.57 117.456 184.266 118.272 185.058 118.728C185.394 118.92 185.874 118.776 186.09 118.392C186.33 117.984 186.186 117.528 185.85 117.336C185.082 116.88 184.026 116.664 183.162 116.304C184.026 115.944 185.082 115.752 185.85 115.296C186.186 115.104 186.33 114.624 186.09 114.24C185.874 113.832 185.394 113.688 185.058 113.904C184.266 114.36 183.57 115.152 182.826 115.704C182.946 114.792 183.306 113.784 183.306 112.872C183.306 112.488 182.946 112.152 182.49 112.152C182.058 112.152 181.698 112.488 181.698 112.872C181.698 113.784 182.034 114.792 182.154 115.704C181.434 115.152 180.738 114.336 179.946 113.88C179.61 113.688 179.13 113.832 178.914 114.216C178.674 114.624 178.794 115.08 179.13 115.272C179.922 115.728 180.954 115.944 181.818 116.304C180.978 116.664 179.922 116.856 179.13 117.312C178.794 117.504 178.674 117.984 178.914 118.368C179.13 118.776 179.61 118.92 179.946 118.704C180.738 118.248 181.41 117.456 182.154 116.904C182.034 117.816 181.698 118.824 181.698 119.736C181.698 120.12 182.058 120.456 182.514 120.456ZM198.128 120.456C198.584 120.456 198.944 120.12 198.944 119.736C198.944 118.824 198.584 117.816 198.464 116.904C199.184 117.456 199.88 118.272 200.672 118.728C201.008 118.92 201.488 118.776 201.704 118.392C201.944 117.984 201.8 117.528 201.464 117.336C200.696 116.88 199.64 116.664 198.776 116.304C199.64 115.944 200.696 115.752 201.464 115.296C201.8 115.104 201.944 114.624 201.704 114.24C201.488 113.832 201.008 113.688 200.672 113.904C199.88 114.36 199.184 115.152 198.44 115.704C198.56 114.792 198.92 113.784 198.92 112.872C198.92 112.488 198.56 112.152 198.104 112.152C197.672 112.152 197.312 112.488 197.312 112.872C197.312 113.784 197.648 114.792 197.768 115.704C197.048 115.152 196.352 114.336 195.56 113.88C195.224 113.688 194.744 113.832 194.528 114.216C194.288 114.624 194.408 115.08 194.744 115.272C195.536 115.728 196.568 115.944 197.432 116.304C196.592 116.664 195.536 116.856 194.744 117.312C194.408 117.504 194.288 117.984 194.528 118.368C194.744 118.776 195.224 118.92 195.56 118.704C196.352 118.248 197.024 117.456 197.768 116.904C197.648 117.816 197.312 118.824 197.312 119.736C197.312 120.12 197.672 120.456 198.128 120.456ZM213.741 120.456C214.197 120.456 214.557 120.12 214.557 119.736C214.557 118.824 214.197 117.816 214.077 116.904C214.797 117.456 215.493 118.272 216.285 118.728C216.621 118.92 217.101 118.776 217.317 118.392C217.557 117.984 217.413 117.528 217.077 117.336C216.309 116.88 215.253 116.664 214.389 116.304C215.253 115.944 216.309 115.752 217.077 115.296C217.413 115.104 217.557 114.624 217.317 114.24C217.101 113.832 216.621 113.688 216.285 113.904C215.493 114.36 214.797 115.152 214.053 115.704C214.173 114.792 214.533 113.784 214.533 112.872C214.533 112.488 214.173 112.152 213.717 112.152C213.285 112.152 212.925 112.488 212.925 112.872C212.925 113.784 213.261 114.792 213.381 115.704C212.661 115.152 211.965 114.336 211.173 113.88C210.837 113.688 210.357 113.832 210.141 114.216C209.901 114.624 210.021 115.08 210.357 115.272C211.149 115.728 212.181 115.944 213.045 116.304C212.205 116.664 211.149 116.856 210.357 117.312C210.021 117.504 209.901 117.984 210.141 118.368C210.357 118.776 210.837 118.92 211.173 118.704C211.965 118.248 212.637 117.456 213.381 116.904C213.261 117.816 212.925 118.824 212.925 119.736C212.925 120.12 213.285 120.456 213.741 120.456ZM229.355 120.456C229.811 120.456 230.171 120.12 230.171 119.736C230.171 118.824 229.811 117.816 229.691 116.904C230.411 117.456 231.107 118.272 231.899 118.728C232.235 118.92 232.715 118.776 232.931 118.392C233.171 117.984 233.027 117.528 232.691 117.336C231.923 116.88 230.867 116.664 230.003 116.304C230.867 115.944 231.923 115.752 232.691 115.296C233.027 115.104 233.171 114.624 232.931 114.24C232.715 113.832 232.235 113.688 231.899 113.904C231.107 114.36 230.411 115.152 229.667 115.704C229.787 114.792 230.147 113.784 230.147 112.872C230.147 112.488 229.787 112.152 229.331 112.152C228.899 112.152 228.539 112.488 228.539 112.872C228.539 113.784 228.875 114.792 228.995 115.704C228.275 115.152 227.579 114.336 226.787 113.88C226.451 113.688 225.971 113.832 225.755 114.216C225.515 114.624 225.635 115.08 225.971 115.272C226.763 115.728 227.795 115.944 228.659 116.304C227.819 116.664 226.763 116.856 225.971 117.312C225.635 117.504 225.515 117.984 225.755 118.368C225.971 118.776 226.451 118.92 226.787 118.704C227.579 118.248 228.251 117.456 228.995 116.904C228.875 117.816 228.539 118.824 228.539 119.736C228.539 120.12" fill="#F7F7F7"/>
<path opacity="0.8" d="M44.5028 190.12C45.5128 190.12 46.4328 189.69 47.0928 189L46.2128 188.18C45.7828 188.67 45.1728 188.98 44.5028 188.98C43.2328 188.98 42.1628 187.88 42.1628 186.56C42.1628 185.25 43.2328 184.15 44.5028 184.15C45.1628 184.15 45.7828 184.46 46.2028 184.95L47.0928 184.12C46.4328 183.44 45.5128 183.01 44.5028 183.01C42.5428 183.01 40.8928 184.63 40.8928 186.56C40.8928 188.49 42.5428 190.12 44.5028 190.12ZM49.8591 184.71C49.2091 184.71 48.5291 184.89 47.7991 185.25L48.2191 186.1C48.6591 185.88 49.1291 185.71 49.6191 185.71C50.5591 185.71 50.8891 186.29 50.8891 186.89V187.03C50.4191 186.85 49.9091 186.75 49.4391 186.75C48.2791 186.75 47.3291 187.45 47.3291 188.47C47.3291 189.47 48.1591 190.12 49.2591 190.12C49.8591 190.12 50.5091 189.86 50.8891 189.38V190H52.0791V186.89C52.0791 185.58 51.2291 184.71 49.8591 184.71ZM49.5291 189.23C48.9491 189.23 48.5191 188.92 48.5191 188.43C48.5191 187.94 49.0091 187.6 49.6191 187.6C50.0791 187.6 50.5091 187.67 50.8891 187.8V188.38C50.7491 188.93 50.1191 189.23 49.5291 189.23ZM54.2421 185.83V184.83H53.0221V190H54.2421V187.39C54.2421 186.41 54.9821 185.75 56.0921 185.75V184.71C55.2421 184.71 54.5721 185.14 54.2421 185.83ZM60.518 183.01V185.63C60.108 185.05 59.488 184.71 58.728 184.71C57.358 184.71 56.358 185.83 56.358 187.41C56.358 189 57.358 190.12 58.728 190.12C59.488 190.12 60.108 189.78 60.518 189.2V190H61.738V183.01H60.518ZM59.058 189.08C58.188 189.08 57.568 188.38 57.568 187.41C57.568 186.44 58.188 185.75 59.058 185.75C59.918 185.75 60.518 186.44 60.518 187.41C60.518 188.38 59.918 189.08 59.058 189.08ZM69.8475 183.13V185.93H66.4175V183.13H65.1675V190H66.4175V187.07H69.8475V190H71.0975V183.13H69.8475ZM74.573 190.12C76.073 190.12 77.343 188.88 77.343 187.41C77.343 185.94 76.073 184.71 74.573 184.71C73.073 184.71 71.803 185.94 71.803 187.41C71.803 188.88 73.073 190.12 74.573 190.12ZM74.573 189.08C73.713 189.08 72.993 188.32 72.993 187.41C72.993 186.51 73.713 185.75 74.573 185.75C75.423 185.75 76.143 186.51 76.143 187.41C76.143 188.32 75.423 189.08 74.573 189.08ZM77.9931 190H79.2131V183.01H77.9931V190ZM84.0835 183.01V185.63C83.6735 185.05 83.0535 184.71 82.2935 184.71C80.9235 184.71 79.9235 185.83 79.9235 187.41C79.9235 189 80.9235 190.12 82.2935 190.12C83.0535 190.12 83.6735 189.78 84.0835 189.2V190H85.3035V183.01H84.0835ZM82.6235 189.08C81.7535 189.08 81.1335 188.38 81.1335 187.41C81.1335 186.44 81.7535 185.75 82.6235 185.75C83.4835 185.75 84.0835 186.44 84.0835 187.41C84.0835 188.38 83.4835 189.08 82.6235 189.08ZM88.6789 189.04C87.9389 189.04 87.3989 188.54 87.2489 187.83H91.1489C91.1489 185.92 90.2189 184.71 88.6189 184.71C87.1489 184.71 85.9889 185.85 85.9889 187.4C85.9889 188.99 87.2089 190.12 88.6889 190.12C89.4389 190.12 90.3389 189.8 90.7889 189.32L90.0189 188.52C89.7289 188.82 89.1589 189.04 88.6789 189.04ZM88.6689 185.79C89.3989 185.79 89.8389 186.25 89.9789 186.9H87.2589C87.4389 186.22 87.9889 185.79 88.6689 185.79ZM93.0484 185.83V184.83H91.8284V190H93.0484V187.39C93.0484 186.41 93.7884 185.75 94.8984 185.75V184.71C94.0484 184.71 93.3784 185.14 93.0484 185.83ZM97.9484 190H99.1984V185.17L102.828 190H104.068V183.13H102.828V187.96L99.1984 183.13H97.9484V190ZM107.385 184.71C106.735 184.71 106.055 184.89 105.325 185.25L105.745 186.1C106.185 185.88 106.655 185.71 107.145 185.71C108.085 185.71 108.415 186.29 108.415 186.89V187.03C107.945 186.85 107.435 186.75 106.965 186.75C105.805 186.75 104.855 187.45 104.855 188.47C104.855 189.47 105.685 190.12 106.785 190.12C107.385 190.12 108.035 189.86 108.415 189.38V190H109.605V186.89C109.605 185.58 108.755 184.71 107.385 184.71ZM107.055 189.23C106.475 189.23 106.045 188.92 106.045 188.43C106.045 187.94 106.535 187.6 107.145 187.6C107.605 187.6 108.035 187.67 108.415 187.8V188.38C108.275 188.93 107.645 189.23 107.055 189.23ZM116.488 184.71C115.718 184.71 115.068 185.09 114.818 185.69C114.498 185.08 113.898 184.71 113.168 184.71C112.518 184.71 111.988 185.03 111.728 185.53V184.83H110.508V190H111.728V186.83C111.728 186.2 112.198 185.75 112.858 185.75C113.458 185.75 113.868 186.23 113.868 186.91V190H115.058V186.83C115.058 186.2 115.518 185.75 116.188 185.75C116.778 185.75 117.188 186.23 117.188 186.91V190H118.378V186.71C118.378 185.54 117.568 184.71 116.488 184.71ZM121.7 189.04C120.96 189.04 120.42 188.54 120.27 187.83H124.17C124.17 185.92 123.24 184.71 121.64 184.71C120.17 184.71 119.01 185.85 119.01 187.4C119.01 188.99 120.23 190.12 121.71 190.12C122.46 190.12 123.36 189.8 123.81 189.32L123.04 188.52C122.75 188.82 122.18 189.04 121.7 189.04ZM121.69 185.79C122.42 185.79 122.86 186.25 123 186.9H120.28C120.46 186.22 121.01 185.79 121.69 185.79Z" fill="white"/>
<path opacity="0.8" d="M200.88 184.27V183.13H195.71V190H200.88V188.86H196.96V187.07H200.51V185.93H196.96V184.27H200.88ZM206.369 190L204.429 187.35L206.279 184.83H204.949L203.769 186.44L202.589 184.83H201.249L203.099 187.36L201.159 190H202.489L203.759 188.27L205.019 190H206.369ZM209.877 184.71C209.107 184.71 208.487 185.06 208.077 185.65V184.83H206.857V191.72H208.077V189.18C208.487 189.77 209.107 190.12 209.877 190.12C211.247 190.12 212.247 189 212.247 187.41C212.247 185.83 211.247 184.71 209.877 184.71ZM209.547 189.08C208.687 189.08 208.087 188.38 208.087 187.41C208.087 186.44 208.687 185.75 209.547 185.75C210.417 185.75 211.037 186.44 211.037 187.41C211.037 188.38 210.417 189.08 209.547 189.08ZM213.562 184.05C213.942 184.05 214.252 183.72 214.252 183.35C214.252 182.98 213.942 182.66 213.562 182.66C213.172 182.66 212.862 182.98 212.862 183.35C212.862 183.72 213.172 184.05 213.562 184.05ZM212.942 190H214.162V184.83H212.942V190ZM216.352 185.83V184.83H215.132V190H216.352V187.39C216.352 186.41 217.092 185.75 218.202 185.75V184.71C217.352 184.71 216.682 185.14 216.352 185.83ZM219.748 191.8C220.528 191.79 221.128 191.34 221.518 190.36L223.708 184.83H222.448L221.028 188.69L219.518 184.83H218.228L220.418 190.04L220.198 190.5C220.048 190.75 219.828 190.84 219.538 190.84C219.348 190.84 219.098 190.77 218.878 190.65L218.618 191.53C218.928 191.7 219.358 191.8 219.748 191.8ZM226.831 190H229.251C231.521 190 233.121 188.57 233.121 186.56C233.121 184.55 231.521 183.13 229.251 183.13H226.831V190ZM228.081 188.87V184.26H229.381C230.831 184.26 231.851 185.21 231.851 186.56C231.851 187.91 230.831 188.87 229.381 188.87H228.081ZM236.15 184.71C235.5 184.71 234.82 184.89 234.09 185.25L234.51 186.1C234.95 185.88 235.42 185.71 235.91 185.71C236.85 185.71 237.18 186.29 237.18 186.89V187.03C236.71 186.85 236.2 186.75 235.73 186.75C234.57 186.75 233.62 187.45 233.62 188.47C233.62 189.47 234.45 190.12 235.55 190.12C236.15 190.12 236.8 189.86 237.18 189.38V190H238.37V186.89C238.37 185.58 237.52 184.71 236.15 184.71ZM235.82 189.23C235.24 189.23 234.81 188.92 234.81 188.43C234.81 187.94 235.3 187.6 235.91 187.6C236.37 187.6 236.8 187.67 237.18 187.8V188.38C237.04 188.93 236.41 189.23 235.82 189.23ZM241.863 188.89C241.753 189 241.563 189.08 241.353 189.08C241.063 189.08 240.843 188.83 240.843 188.48V185.84H242.013V184.83H240.843V183.41H239.653V184.83H238.903V185.84H239.653V188.63C239.653 189.5 240.253 190.12 241.113 190.12C241.503 190.12 241.923 189.96 242.213 189.71L241.863 188.89ZM245.162 189.04C244.422 189.04 243.882 188.54 243.732 187.83H247.632C247.632 185.92 246.702 184.71 245.102 184.71C243.632 184.71 242.472 185.85 242.472 187.4C242.472 188.99 243.692 190.12 245.172 190.12C245.922 190.12 246.822 189.8 247.272 189.32L246.502 188.52C246.212 188.82 245.642 189.04 245.162 189.04ZM245.152 185.79C245.882 185.79 246.322 186.25 246.462 186.9H243.742C243.922 186.22 244.472 185.79 245.152 185.79Z" fill="white"/>
<!-- Here was the name -->
<!-- Here was the expire date -->
</g>
<defs>
<filter id="filter0_d_442_1859" x="-9" y="0" width="393" height="266" filterUnits="userSpaceOnUse" color-interpolation-filters="sRGB">
<feFlood flood-opacity="0" result="BackgroundImageFix"/>
<feColorMatrix in="SourceAlpha" type="matrix" values="0 0 0 0 0 0 0 0 0 0 0 0 0 0 0 0 0 0 127 0" result="hardAlpha"/>
<feOffset dy="1"/>
<feGaussianBlur stdDeviation="12.5"/>
<feColorMatrix type="matrix" values="0 0 0 0 0 0 0 0 0 0 0 0 0 0 0 0 0 0 0.34 0"/>
<feBlend mode="normal" in2="BackgroundImageFix" result="effect1_dropShadow_442_1859"/>
<feBlend mode="normal" in="SourceGraphic" in2="effect1_dropShadow_442_1859" result="shape"/>
</filter>
<filter id="filter1_d_442_1859" x="-9" y="0" width="394" height="266" filterUnits="userSpaceOnUse" color-interpolation-filters="sRGB">
<feFlood flood-opacity="0" result="BackgroundImageFix"/>
<feColorMatrix in="SourceAlpha" type="matrix" values="0 0 0 0 0 0 0 0 0 0 0 0 0 0 0 0 0 0 127 0" result="hardAlpha"/>
<feOffset dy="1"/>
<feGaussianBlur stdDeviation="12.5"/>
<feColorMatrix type="matrix" values="0 0 0 0 0 0 0 0 0 0 0 0 0 0 0 0 0 0 0.08 0"/>
<feBlend mode="normal" in2="BackgroundImageFix" result="effect1_dropShadow_442_1859"/>
<feBlend mode="normal" in="SourceGraphic" in2="effect1_dropShadow_442_1859" result="shape"/>
</filter>
<linearGradient id="paint0_linear_442_1859" x1="119.5" y1="237.5" x2="311" y2="116.5" gradientUnits="userSpaceOnUse">
<stop stop-color="white"/>
<stop offset="1" stop-color="white" stop-opacity="0"/>
</linearGradient>
<linearGradient id="paint1_linear_442_1859" x1="326.5" y1="-67" x2="326.5" y2="174" gradientUnits="userSpaceOnUse">
<stop stop-color="white"/>
<stop offset="1" stop-color="white" stop-opacity="0"/>
</linearGradient>
<clipPath id="clip0_442_1859">
<rect width="32" height="25" fill="white" transform="translate(303 183)"/>
</clipPath>
</defs>
</svg>
