<svg width="375" height="266" viewBox="0 0 375 266" fill="none" xmlns="http://www.w3.org/2000/svg">
<g filter="url(#filter0_d_442_1884)">
<mask id="mask0_442_1884" style="mask-type:alpha" maskUnits="userSpaceOnUse" x="16" y="24" width="343" height="216">
<rect x="16" y="24" width="343" height="216" rx="8" fill="#F7F7F7"/>
</mask>
<g mask="url(#mask0_442_1884)">
<g filter="url(#filter1_d_442_1884)">
<rect x="16" y="24" width="344" height="216" rx="8" fill="#EF3651"/>
</g>
<path d="M227.5 161.5C207.204 158.502 183.838 160.679 165.418 163.642C144.515 167.005 122.696 164.38 104.493 153.567C80.4884 139.309 51.2911 136.779 25.1923 146.697L16.5 150L8 247H296L294.425 235.028C293.81 230.357 292.712 225.786 290.764 221.496C283.629 205.785 262.541 166.677 227.5 161.5Z" fill="url(#paint0_linear_442_1884)" fill-opacity="0.1"/>
<circle cx="326.5" cy="53.5" r="120.5" fill="url(#paint1_linear_442_1884)" fill-opacity="0.1"/>
<mask id="mask1_442_1884" style="mask-type:alpha" maskUnits="userSpaceOnUse" x="40" y="135" width="32" height="24">
<rect x="40" y="135" width="32" height="24" rx="8" fill="#FFBA49"/>
</mask>
<!-- This is the print -->
<g mask="url(#mask1_442_1884)">
<rect x="40" y="135" width="32" height="24" rx="8" fill="#FFBA49"/>
<rect x="34" y="137" width="20" height="7" rx="2.5" stroke="#D29634" stroke-width="0.3"/>
<rect x="34" y="144" width="20" height="7" rx="2.5" stroke="#D29634" stroke-width="0.3"/>
<rect x="34" y="151" width="20" height="7" rx="2.5" stroke="#D29634" stroke-width="0.3"/>
<rect x="59" y="137" width="20" height="7" rx="2.5" stroke="#D29634" stroke-width="0.3"/>
<rect x="59" y="144" width="20" height="7" rx="2.5" stroke="#D29634" stroke-width="0.3"/>
<rect x="59" y="151" width="20" height="7" rx="2.5" stroke="#D29634" stroke-width="0.3"/>
</g>
  <!-- Card Numbers -->
<path d="M44.8932 112.456C45.3492 112.456 45.7092 112.12 45.7092 111.736C45.7092 110.824 45.3492 109.816 45.2292 108.904C45.9492 109.456 46.6452 110.272 47.4372 110.728C47.7732 110.92 48.2532 110.776 48.4692 110.392C48.7092 109.984 48.5652 109.528 48.2292 109.336C47.4612 108.88 46.4052 108.664 45.5412 108.304C46.4052 107.944 47.4612 107.752 48.2292 107.296C48.5652 107.104 48.7092 106.624 48.4692 106.24C48.2532 105.832 47.7732 105.688 47.4372 105.904C46.6452 106.36 45.9492 107.152 45.2052 107.704C45.3252 106.792 45.6852 105.784 45.6852 104.872C45.6852 104.488 45.3252 104.152 44.8692 104.152C44.4372 104.152 44.0772 104.488 44.0772 104.872C44.0772 105.784 44.4132 106.792 44.5332 107.704C43.8132 107.152 43.1172 106.336 42.3252 105.88C41.9892 105.688 41.5092 105.832 41.2932 106.216C41.0532 106.624 41.1732 107.08 41.5092 107.272C42.3012 107.728 43.3332 107.944 44.1972 108.304C43.3572 108.664 42.3012 108.856 41.5092 109.312C41.1732 109.504 41.0532 109.984 41.2932 110.368C41.5092 110.776 41.9892 110.92 42.3252 110.704C43.1172 110.248 43.7892 109.456 44.5332 108.904C44.4132 109.816 44.0772 110.824 44.0772 111.736C44.0772 112.12 44.4372 112.456 44.8932 112.456ZM60.5069 112.456C60.9629 112.456 61.3229 112.12 61.3229 111.736C61.3229 110.824 60.9629 109.816 60.8429 108.904C61.5629 109.456 62.2589 110.272 63.0509 110.728C63.3869 110.92 63.8669 110.776 64.0829 110.392C64.3229 109.984 64.1789 109.528 63.8429 109.336C63.0749 108.88 62.0189 108.664 61.1549 108.304C62.0189 107.944 63.0749 107.752 63.8429 107.296C64.1789 107.104 64.3229 106.624 64.0829 106.24C63.8669 105.832 63.3869 105.688 63.0509 105.904C62.2589 106.36 61.5629 107.152 60.8189 107.704C60.9389 106.792 61.2989 105.784 61.2989 104.872C61.2989 104.488 60.9389 104.152 60.4829 104.152C60.0509 104.152 59.6909 104.488 59.6909 104.872C59.6909 105.784 60.0269 106.792 60.1469 107.704C59.4269 107.152 58.7309 106.336 57.9389 105.88C57.6029 105.688 57.1229 105.832 56.9069 106.216C56.6669 106.624 56.7869 107.08 57.1229 107.272C57.9149 107.728 58.9469 107.944 59.8109 108.304C58.9709 108.664 57.9149 108.856 57.1229 109.312C56.7869 109.504 56.6669 109.984 56.9069 110.368C57.1229 110.776 57.6029 110.92 57.9389 110.704C58.7309 110.248 59.4029 109.456 60.1469 108.904C60.0269 109.816 59.6909 110.824 59.6909 111.736C59.6909 112.12 60.0509 112.456 60.5069 112.456ZM76.1206 112.456C76.5766 112.456 76.9366 112.12 76.9366 111.736C76.9366 110.824 76.5766 109.816 76.4566 108.904C77.1766 109.456 77.8726 110.272 78.6646 110.728C79.0006 110.92 79.4806 110.776 79.6966 110.392C79.9366 109.984 79.7926 109.528 79.4566 109.336C78.6886 108.88 77.6326 108.664 76.7686 108.304C77.6326 107.944 78.6886 107.752 79.4566 107.296C79.7926 107.104 79.9366 106.624 79.6966 106.24C79.4806 105.832 79.0006 105.688 78.6646 105.904C77.8726 106.36 77.1766 107.152 76.4326 107.704C76.5526 106.792 76.9126 105.784 76.9126 104.872C76.9126 104.488 76.5526 104.152 76.0966 104.152C75.6646 104.152 75.3046 104.488 75.3046 104.872C75.3046 105.784 75.6406 106.792 75.7606 107.704C75.0406 107.152 74.3446 106.336 73.5526 105.88C73.2166 105.688 72.7366 105.832 72.5206 106.216C72.2806 106.624 72.4006 107.08 72.7366 107.272C73.5286 107.728 74.5606 107.944 75.4246 108.304C74.5846 108.664 73.5286 108.856 72.7366 109.312C72.4006 109.504 72.2806 109.984 72.5206 110.368C72.7366 110.776 73.2166 110.92 73.5526 110.704C74.3446 110.248 75.0166 109.456 75.7606 108.904C75.6406 109.816 75.3046 110.824 75.3046 111.736C75.3046 112.12 75.6646 112.456 76.1206 112.456ZM91.7343 112.456C92.1903 112.456 92.5503 112.12 92.5503 111.736C92.5503 110.824 92.1903 109.816 92.0703 108.904C92.7903 109.456 93.4863 110.272 94.2783 110.728C94.6143 110.92 95.0943 110.776 95.3103 110.392C95.5503 109.984 95.4063 109.528 95.0703 109.336C94.3023 108.88 93.2463 108.664 92.3823 108.304C93.2463 107.944 94.3023 107.752 95.0703 107.296C95.4063 107.104 95.5503 106.624 95.3103 106.24C95.0943 105.832 94.6143 105.688 94.2783 105.904C93.4863 106.36 92.7903 107.152 92.0463 107.704C92.1663 106.792 92.5263 105.784 92.5263 104.872C92.5263 104.488 92.1663 104.152 91.7103 104.152C91.2783 104.152 90.9183 104.488 90.9183 104.872C90.9183 105.784 91.2543 106.792 91.3743 107.704C90.6543 107.152 89.9583 106.336 89.1663 105.88C88.8303 105.688 88.3503 105.832 88.1343 106.216C87.8943 106.624 88.0143 107.08 88.3503 107.272C89.1423 107.728 90.1743 107.944 91.0383 108.304C90.1983 108.664 89.1423 108.856 88.3503 109.312C88.0143 109.504 87.8943 109.984 88.1343 110.368C88.3503 110.776 88.8303 110.92 89.1663 110.704C89.9583 110.248 90.6303 109.456 91.3743 108.904C91.2543 109.816 90.9183 110.824 90.9183 111.736C90.9183 112.12 91.2783 112.456 91.7343 112.456ZM113.737 112.456C114.193 112.456 114.553 112.12 114.553 111.736C114.553 110.824 114.193 109.816 114.073 108.904C114.793 109.456 115.489 110.272 116.281 110.728C116.617 110.92 117.097 110.776 117.313 110.392C117.553 109.984 117.409 109.528 117.073 109.336C116.305 108.88 115.249 108.664 114.385 108.304C115.249 107.944 116.305 107.752 117.073 107.296C117.409 107.104 117.553 106.624 117.313 106.24C117.097 105.832 116.617 105.688 116.281 105.904C115.489 106.36 114.793 107.152 114.049 107.704C114.169 106.792 114.529 105.784 114.529 104.872C114.529 104.488 114.169 104.152 113.713 104.152C113.281 104.152 112.921 104.488 112.921 104.872C112.921 105.784 113.257 106.792 113.377 107.704C112.657 107.152 111.961 106.336 111.169 105.88C110.833 105.688 110.353 105.832 110.137 106.216C109.897 106.624 110.017 107.08 110.353 107.272C111.145 107.728 112.177 107.944 113.041 108.304C112.201 108.664 111.145 108.856 110.353 109.312C110.017 109.504 109.897 109.984 110.137 110.368C110.353 110.776 110.833 110.92 111.169 110.704C111.961 110.248 112.633 109.456 113.377 108.904C113.257 109.816 112.921 110.824 112.921 111.736C112.921 112.12 113.281 112.456 113.737 112.456ZM129.351 112.456C129.807 112.456 130.167 112.12 130.167 111.736C130.167 110.824 129.807 109.816 129.687 108.904C130.407 109.456 131.103 110.272 131.895 110.728C132.231 110.92 132.711 110.776 132.927 110.392C133.167 109.984 133.023 109.528 132.687 109.336C131.919 108.88 130.863 108.664 129.999 108.304C130.863 107.944 131.919 107.752 132.687 107.296C133.023 107.104 133.167 106.624 132.927 106.24C132.711 105.832 132.231 105.688 131.895 105.904C131.103 106.36 130.407 107.152 129.663 107.704C129.783 106.792 130.143 105.784 130.143 104.872C130.143 104.488 129.783 104.152 129.327 104.152C128.895 104.152 128.535 104.488 128.535 104.872C128.535 105.784 128.871 106.792 128.991 107.704C128.271 107.152 127.575 106.336 126.783 105.88C126.447 105.688 125.967 105.832 125.751 106.216C125.511 106.624 125.631 107.08 125.967 107.272C126.759 107.728 127.791 107.944 128.655 108.304C127.815 108.664 126.759 108.856 125.967 109.312C125.631 109.504 125.511 109.984 125.751 110.368C125.967 110.776 126.447 110.92 126.783 110.704C127.575 110.248 128.247 109.456 128.991 108.904C128.871 109.816 128.535 110.824 128.535 111.736C128.535 112.12 128.895 112.456 129.351 112.456ZM144.964 112.456C145.42 112.456 145.78 112.12 145.78 111.736C145.78 110.824 145.42 109.816 145.3 108.904C146.02 109.456 146.716 110.272 147.508 110.728C147.844 110.92 148.324 110.776 148.54 110.392C148.78 109.984 148.636 109.528 148.3 109.336C147.532 108.88 146.476 108.664 145.612 108.304C146.476 107.944 147.532 107.752 148.3 107.296C148.636 107.104 148.78 106.624 148.54 106.24C148.324 105.832 147.844 105.688 147.508 105.904C146.716 106.36 146.02 107.152 145.276 107.704C145.396 106.792 145.756 105.784 145.756 104.872C145.756 104.488 145.396 104.152 144.94 104.152C144.508 104.152 144.148 104.488 144.148 104.872C144.148 105.784 144.484 106.792 144.604 107.704C143.884 107.152 143.188 106.336 142.396 105.88C142.06 105.688 141.58 105.832 141.364 106.216C141.124 106.624 141.244 107.08 141.58 107.272C142.372 107.728 143.404 107.944 144.268 108.304C143.428 108.664 142.372 108.856 141.58 109.312C141.244 109.504 141.124 109.984 141.364 110.368C141.58 110.776 142.06 110.92 142.396 110.704C143.188 110.248 143.86 109.456 144.604 108.904C144.484 109.816 144.148 110.824 144.148 111.736C144.148 112.12 144.508 112.456 144.964 112.456ZM160.578 112.456C161.034 112.456 161.394 112.12 161.394 111.736C161.394 110.824 161.034 109.816 160.914 108.904C161.634 109.456 162.33 110.272 163.122 110.728C163.458 110.92 163.938 110.776 164.154 110.392C164.394 109.984 164.25 109.528 163.914 109.336C163.146 108.88 162.09 108.664 161.226 108.304C162.09 107.944 163.146 107.752 163.914 107.296C164.25 107.104 164.394 106.624 164.154 106.24C163.938 105.832 163.458 105.688 163.122 105.904C162.33 106.36 161.634 107.152 160.89 107.704C161.01 106.792 161.37 105.784 161.37 104.872C161.37 104.488 161.01 104.152 160.554 104.152C160.122 104.152 159.762 104.488 159.762 104.872C159.762 105.784 160.098 106.792 160.218 107.704C159.498 107.152 158.802 106.336 158.01 105.88C157.674 105.688 157.194 105.832 156.978 106.216C156.738 106.624 156.858 107.08 157.194 107.272C157.986 107.728 159.018 107.944 159.882 108.304C159.042 108.664 157.986 108.856 157.194 109.312C156.858 109.504 156.738 109.984 156.978 110.368C157.194 110.776 157.674 110.92 158.01 110.704C158.802 110.248 159.474 109.456 160.218 108.904C160.098 109.816 159.762 110.824 159.762 111.736C159.762 112.12 160.122 112.456 160.578 112.456ZM182.58 112.456C183.036 112.456 183.396 112.12 183.396 111.736C183.396 110.824 183.036 109.816 182.916 108.904C183.636 109.456 184.332 110.272 185.124 110.728C185.46 110.92 185.94 110.776 186.156 110.392C186.396 109.984 186.252 109.528 185.916 109.336C185.148 108.88 184.092 108.664 183.228 108.304C184.092 107.944 185.148 107.752 185.916 107.296C186.252 107.104 186.396 106.624 186.156 106.24C185.94 105.832 185.46 105.688 185.124 105.904C184.332 106.36 183.636 107.152 182.892 107.704C183.012 106.792 183.372 105.784 183.372 104.872C183.372 104.488 183.012 104.152 182.556 104.152C182.124 104.152 181.764 104.488 181.764 104.872C181.764 105.784 182.1 106.792 182.22 107.704C181.5 107.152 180.804 106.336 180.012 105.88C179.676 105.688 179.196 105.832 178.98 106.216C178.74 106.624 178.86 107.08 179.196 107.272C179.988 107.728 181.02 107.944 181.884 108.304C181.044 108.664 179.988 108.856 179.196 109.312C178.86 109.504 178.74 109.984 178.98 110.368C179.196 110.776 179.676 110.92 180.012 110.704C180.804 110.248 181.476 109.456 182.22 108.904C182.1 109.816 181.764 110.824 181.764 111.736C181.764 112.12 182.124 112.456 182.58 112.456ZM198.194 112.456C198.65 112.456 199.01 112.12 199.01 111.736C199.01 110.824 198.65 109.816 198.53 108.904C199.25 109.456 199.946 110.272 200.738 110.728C201.074 110.92 201.554 110.776 201.77 110.392C202.01 109.984 201.866 109.528 201.53 109.336C200.762 108.88 199.706 108.664 198.842 108.304C199.706 107.944 200.762 107.752 201.53 107.296C201.866 107.104 202.01 106.624 201.77 106.24C201.554 105.832 201.074 105.688 200.738 105.904C199.946 106.36 199.25 107.152 198.506 107.704C198.626 106.792 198.986 105.784 198.986 104.872C198.986 104.488 198.626 104.152 198.17 104.152C197.738 104.152 197.378 104.488 197.378 104.872C197.378 105.784 197.714 106.792 197.834 107.704C197.114 107.152 196.418 106.336 195.626 105.88C195.29 105.688 194.81 105.832 194.594 106.216C194.354 106.624 194.474 107.08 194.81 107.272C195.602 107.728 196.634 107.944 197.498 108.304C196.658 108.664 195.602 108.856 194.81 109.312C194.474 109.504 194.354 109.984 194.594 110.368C194.81 110.776 195.29 110.92 195.626 110.704C196.418 110.248 197.09 109.456 197.834 108.904C197.714 109.816 197.378 110.824 197.378 111.736C197.378 112.12 197.738 112.456 198.194 112.456ZM213.808 112.456C214.264 112.456 214.624 112.12 214.624 111.736C214.624 110.824 214.264 109.816 214.144 108.904C214.864 109.456 215.56 110.272 216.352 110.728C216.688 110.92 217.168 110.776 217.384 110.392C217.624 109.984 217.48 109.528 217.144 109.336C216.376 108.88 215.32 108.664 214.456 108.304C215.32 107.944 216.376 107.752 217.144 107.296C217.48 107.104 217.624 106.624 217.384 106.24C217.168 105.832 216.688 105.688 216.352 105.904C215.56 106.36 214.864 107.152 214.12 107.704C214.24 106.792 214.6 105.784 214.6 104.872C214.6 104.488 214.24 104.152 213.784 104.152C213.352 104.152 212.992 104.488 212.992 104.872C212.992 105.784 213.328 106.792 213.448 107.704C212.728 107.152 212.032 106.336 211.24 105.88C210.904 105.688 210.424 105.832 210.208 106.216C209.968 106.624 210.088 107.08 210.424 107.272C211.216 107.728 212.248 107.944 213.112 108.304C212.272 108.664 211.216 108.856 210.424 109.312C210.088 109.504 209.968 109.984 210.208 110.368C210.424 110.776 210.904 110.92 211.24 110.704C212.032 110.248 212.704 109.456 213.448 108.904C213.328 109.816 212.992 110.824 212.992 111.736C212.992 112.12 213.352 112.456 213.808 112.456ZM229.422 112.456C229.878 112.456 230.238 112.12 230.238 111.736C230.238 110.824 229.878 109.816 229.758 108.904C230.478 109.456 231.174 110.272 231.966 110.728C232.302 110.92 232.782 110.776 232.998 110.392C233.238 109.984 233.094 109.528 232.758 109.336C231.99 108.88 230.934 108.664 230.07 108.304C230.934 107.944 231.99 107.752 232.758 107.296C233.094 107.104 233.238 106.624 232.998 106.24C232.782 105.832 232.302 105.688 231.966 105.904C231.174 106.36 230.478 107.152 229.734 107.704C229.854 106.792 230.214 105.784 230.214 104.872C230.214 104.488 229.854 104.152 229.398 104.152C228.966 104.152 228.606 104.488 228.606 104.872C228.606 105.784 228.942 106.792 229.062 107.704C228.342 107.152 227.646 106.336 226.854 105.88C226.518 105.688 226.038 105.832 225.822 106.216C225.582 106.624 225.702 107.08 226.038 107.272C226.83 107.728 227.862 107.944 228.726 108.304C227.886 108.664 226.83 108.856 226.038 109.312C225.702 109.504 225.582 109.984 225.822 110.368C226.038 110.776 226.518 110.92 226.854 110.704C227.646 110.248 228.318 109.456 229.062 108.904C228.942 109.816 228.606 110.824 228.606 111.736C228.606 112.12 228.966 112.456 229.422" fill="#F7F7F7"/>
<path d="M44.5028 190.12C45.5128 190.12 46.4328 189.69 47.0928 189L46.2128 188.18C45.7828 188.67 45.1728 188.98 44.5028 188.98C43.2328 188.98 42.1628 187.88 42.1628 186.56C42.1628 185.25 43.2328 184.15 44.5028 184.15C45.1628 184.15 45.7828 184.46 46.2028 184.95L47.0928 184.12C46.4328 183.44 45.5128 183.01 44.5028 183.01C42.5428 183.01 40.8928 184.63 40.8928 186.56C40.8928 188.49 42.5428 190.12 44.5028 190.12ZM49.8591 184.71C49.2091 184.71 48.5291 184.89 47.7991 185.25L48.2191 186.1C48.6591 185.88 49.1291 185.71 49.6191 185.71C50.5591 185.71 50.8891 186.29 50.8891 186.89V187.03C50.4191 186.85 49.9091 186.75 49.4391 186.75C48.2791 186.75 47.3291 187.45 47.3291 188.47C47.3291 189.47 48.1591 190.12 49.2591 190.12C49.8591 190.12 50.5091 189.86 50.8891 189.38V190H52.0791V186.89C52.0791 185.58 51.2291 184.71 49.8591 184.71ZM49.5291 189.23C48.9491 189.23 48.5191 188.92 48.5191 188.43C48.5191 187.94 49.0091 187.6 49.6191 187.6C50.0791 187.6 50.5091 187.67 50.8891 187.8V188.38C50.7491 188.93 50.1191 189.23 49.5291 189.23ZM54.2421 185.83V184.83H53.0221V190H54.2421V187.39C54.2421 186.41 54.9821 185.75 56.0921 185.75V184.71C55.2421 184.71 54.5721 185.14 54.2421 185.83ZM60.518 183.01V185.63C60.108 185.05 59.488 184.71 58.728 184.71C57.358 184.71 56.358 185.83 56.358 187.41C56.358 189 57.358 190.12 58.728 190.12C59.488 190.12 60.108 189.78 60.518 189.2V190H61.738V183.01H60.518ZM59.058 189.08C58.188 189.08 57.568 188.38 57.568 187.41C57.568 186.44 58.188 185.75 59.058 185.75C59.918 185.75 60.518 186.44 60.518 187.41C60.518 188.38 59.918 189.08 59.058 189.08ZM69.8475 183.13V185.93H66.4175V183.13H65.1675V190H66.4175V187.07H69.8475V190H71.0975V183.13H69.8475ZM74.573 190.12C76.073 190.12 77.343 188.88 77.343 187.41C77.343 185.94 76.073 184.71 74.573 184.71C73.073 184.71 71.803 185.94 71.803 187.41C71.803 188.88 73.073 190.12 74.573 190.12ZM74.573 189.08C73.713 189.08 72.993 188.32 72.993 187.41C72.993 186.51 73.713 185.75 74.573 185.75C75.423 185.75 76.143 186.51 76.143 187.41C76.143 188.32 75.423 189.08 74.573 189.08ZM77.9931 190H79.2131V183.01H77.9931V190ZM84.0835 183.01V185.63C83.6735 185.05 83.0535 184.71 82.2935 184.71C80.9235 184.71 79.9235 185.83 79.9235 187.41C79.9235 189 80.9235 190.12 82.2935 190.12C83.0535 190.12 83.6735 189.78 84.0835 189.2V190H85.3035V183.01H84.0835ZM82.6235 189.08C81.7535 189.08 81.1335 188.38 81.1335 187.41C81.1335 186.44 81.7535 185.75 82.6235 185.75C83.4835 185.75 84.0835 186.44 84.0835 187.41C84.0835 188.38 83.4835 189.08 82.6235 189.08ZM88.6789 189.04C87.9389 189.04 87.3989 188.54 87.2489 187.83H91.1489C91.1489 185.92 90.2189 184.71 88.6189 184.71C87.1489 184.71 85.9889 185.85 85.9889 187.4C85.9889 188.99 87.2089 190.12 88.6889 190.12C89.4389 190.12 90.3389 189.8 90.7889 189.32L90.0189 188.52C89.7289 188.82 89.1589 189.04 88.6789 189.04ZM88.6689 185.79C89.3989 185.79 89.8389 186.25 89.9789 186.9H87.2589C87.4389 186.22 87.9889 185.79 88.6689 185.79ZM93.0484 185.83V184.83H91.8284V190H93.0484V187.39C93.0484 186.41 93.7884 185.75 94.8984 185.75V184.71C94.0484 184.71 93.3784 185.14 93.0484 185.83ZM97.9484 190H99.1984V185.17L102.828 190H104.068V183.13H102.828V187.96L99.1984 183.13H97.9484V190ZM107.385 184.71C106.735 184.71 106.055 184.89 105.325 185.25L105.745 186.1C106.185 185.88 106.655 185.71 107.145 185.71C108.085 185.71 108.415 186.29 108.415 186.89V187.03C107.945 186.85 107.435 186.75 106.965 186.75C105.805 186.75 104.855 187.45 104.855 188.47C104.855 189.47 105.685 190.12 106.785 190.12C107.385 190.12 108.035 189.86 108.415 189.38V190H109.605V186.89C109.605 185.58 108.755 184.71 107.385 184.71ZM107.055 189.23C106.475 189.23 106.045 188.92 106.045 188.43C106.045 187.94 106.535 187.6 107.145 187.6C107.605 187.6 108.035 187.67 108.415 187.8V188.38C108.275 188.93 107.645 189.23 107.055 189.23ZM116.488 184.71C115.718 184.71 115.068 185.09 114.818 185.69C114.498 185.08 113.898 184.71 113.168 184.71C112.518 184.71 111.988 185.03 111.728 185.53V184.83H110.508V190H111.728V186.83C111.728 186.2 112.198 185.75 112.858 185.75C113.458 185.75 113.868 186.23 113.868 186.91V190H115.058V186.83C115.058 186.2 115.518 185.75 116.188 185.75C116.778 185.75 117.188 186.23 117.188 186.91V190H118.378V186.71C118.378 185.54 117.568 184.71 116.488 184.71ZM121.7 189.04C120.96 189.04 120.42 188.54 120.27 187.83H124.17C124.17 185.92 123.24 184.71 121.64 184.71C120.17 184.71 119.01 185.85 119.01 187.4C119.01 188.99 120.23 190.12 121.71 190.12C122.46 190.12 123.36 189.8 123.81 189.32L123.04 188.52C122.75 188.82 122.18 189.04 121.7 189.04ZM121.69 185.79C122.42 185.79 122.86 186.25 123 186.9H120.28C120.46 186.22 121.01 185.79 121.69 185.79Z" fill="white"/>
<path d="M286.88 184.27V183.13H281.71V190H286.88V188.86H282.96V187.07H286.51V185.93H282.96V184.27H286.88ZM292.369 190L290.429 187.35L292.279 184.83H290.949L289.769 186.44L288.589 184.83H287.249L289.099 187.36L287.159 190H288.489L289.759 188.27L291.019 190H292.369ZM295.877 184.71C295.107 184.71 294.487 185.06 294.077 185.65V184.83H292.857V191.72H294.077V189.18C294.487 189.77 295.107 190.12 295.877 190.12C297.247 190.12 298.247 189 298.247 187.41C298.247 185.83 297.247 184.71 295.877 184.71ZM295.547 189.08C294.687 189.08 294.087 188.38 294.087 187.41C294.087 186.44 294.687 185.75 295.547 185.75C296.417 185.75 297.037 186.44 297.037 187.41C297.037 188.38 296.417 189.08 295.547 189.08ZM299.562 184.05C299.942 184.05 300.252 183.72 300.252 183.35C300.252 182.98 299.942 182.66 299.562 182.66C299.172 182.66 298.862 182.98 298.862 183.35C298.862 183.72 299.172 184.05 299.562 184.05ZM298.942 190H300.162V184.83H298.942V190ZM302.352 185.83V184.83H301.132V190H302.352V187.39C302.352 186.41 303.092 185.75 304.202 185.75V184.71C303.352 184.71 302.682 185.14 302.352 185.83ZM305.748 191.8C306.528 191.79 307.128 191.34 307.518 190.36L309.708 184.83H308.448L307.028 188.69L305.518 184.83H304.228L306.418 190.04L306.198 190.5C306.048 190.75 305.828 190.84 305.538 190.84C305.348 190.84 305.098 190.77 304.878 190.65L304.618 191.53C304.928 191.7 305.358 191.8 305.748 191.8ZM312.831 190H315.251C317.521 190 319.121 188.57 319.121 186.56C319.121 184.55 317.521 183.13 315.251 183.13H312.831V190ZM314.081 188.87V184.26H315.381C316.831 184.26 317.851 185.21 317.851 186.56C317.851 187.91 316.831 188.87 315.381 188.87H314.081ZM322.15 184.71C321.5 184.71 320.82 184.89 320.09 185.25L320.51 186.1C320.95 185.88 321.42 185.71 321.91 185.71C322.85 185.71 323.18 186.29 323.18 186.89V187.03C322.71 186.85 322.2 186.75 321.73 186.75C320.57 186.75 319.62 187.45 319.62 188.47C319.62 189.47 320.45 190.12 321.55 190.12C322.15 190.12 322.8 189.86 323.18 189.38V190H324.37V186.89C324.37 185.58 323.52 184.71 322.15 184.71ZM321.82 189.23C321.24 189.23 320.81 188.92 320.81 188.43C320.81 187.94 321.3 187.6 321.91 187.6C322.37 187.6 322.8 187.67 323.18 187.8V188.38C323.04 188.93 322.41 189.23 321.82 189.23ZM327.863 188.89C327.753 189 327.563 189.08 327.353 189.08C327.063 189.08 326.843 188.83 326.843 188.48V185.84H328.013V184.83H326.843V183.41H325.653V184.83H324.903V185.84H325.653V188.63C325.653 189.5 326.253 190.12 327.113 190.12C327.503 190.12 327.923 189.96 328.213 189.71L327.863 188.89ZM331.162 189.04C330.422 189.04 329.882 188.54 329.732 187.83H333.632C333.632 185.92 332.702 184.71 331.102 184.71C329.632 184.71 328.472 185.85 328.472 187.4C328.472 188.99 329.692 190.12 331.172 190.12C331.922 190.12 332.822 189.8 333.272 189.32L332.502 188.52C332.212 188.82 331.642 189.04 331.162 189.04ZM331.152 185.79C331.882 185.79 332.322 186.25 332.462 186.9H329.742C329.922 186.22 330.472 185.79 331.152 185.79Z" fill="white"/>
<!-- Here was the name -->
</g>
<g clip-path="url(#clip0_442_1884)">
<path d="M303.984 43.283L297.437 58.758H293.167L289.946 46.4079C289.75 45.6475 289.58 45.3685 288.986 45.0487C288.015 44.5259 286.411 44.0361 285 43.7318L285.095 43.283H291.97C292.42 43.2823 292.855 43.4409 293.196 43.7303C293.538 44.0196 293.764 44.4205 293.833 44.8606L295.535 53.8157L299.74 43.283H303.984ZM320.718 53.7052C320.736 49.6214 315.018 49.3959 315.057 47.5711C315.07 47.0163 315.603 46.4263 316.771 46.2751C318.137 46.1465 319.513 46.3857 320.754 46.9673L321.464 43.6862C320.255 43.2365 318.975 43.0041 317.684 43C313.691 43 310.88 45.1037 310.857 48.1152C310.831 50.344 312.863 51.586 314.395 52.3271C315.968 53.0854 316.496 53.5719 316.49 54.25C316.479 55.2889 315.235 55.7467 314.072 55.7647C312.041 55.796 310.862 55.2207 309.922 54.7869L309.191 58.1781C310.134 58.6072 311.877 58.9817 313.684 59C317.928 59 320.704 56.9233 320.718 53.7052ZM331.263 58.758H335L331.738 43.283H328.29C327.921 43.2797 327.56 43.3861 327.254 43.5885C326.947 43.7908 326.709 44.0798 326.57 44.418L320.508 58.758H324.749L325.592 56.4461H330.775L331.263 58.758ZM326.755 53.2749L328.882 47.4644L330.106 53.2749H326.755ZM309.757 43.283L306.416 58.758H302.375L305.717 43.283H309.757Z" fill="#F7F7F7"/>
</g>
<!-- Here was the expiration date -->
</g>
<defs>
<filter id="filter0_d_442_1884" x="-9" y="0" width="393" height="266" filterUnits="userSpaceOnUse" color-interpolation-filters="sRGB">
<feFlood flood-opacity="0" result="BackgroundImageFix"/>
<feColorMatrix in="SourceAlpha" type="matrix" values="0 0 0 0 0 0 0 0 0 0 0 0 0 0 0 0 0 0 127 0" result="hardAlpha"/>
<feOffset dy="1"/>
<feGaussianBlur stdDeviation="12.5"/>
<feColorMatrix type="matrix" values="0 0 0 0 0 0 0 0 0 0 0 0 0 0 0 0 0 0 0.34 0"/>
<feBlend mode="normal" in2="BackgroundImageFix" result="effect1_dropShadow_442_1884"/>
<feBlend mode="normal" in="SourceGraphic" in2="effect1_dropShadow_442_1884" result="shape"/>
</filter>
<filter id="filter1_d_442_1884" x="-9" y="0" width="394" height="266" filterUnits="userSpaceOnUse" color-interpolation-filters="sRGB">
<feFlood flood-opacity="0" result="BackgroundImageFix"/>
<feColorMatrix in="SourceAlpha" type="matrix" values="0 0 0 0 0 0 0 0 0 0 0 0 0 0 0 0 0 0 127 0" result="hardAlpha"/>
<feOffset dy="1"/>
<feGaussianBlur stdDeviation="12.5"/>
<feColorMatrix type="matrix" values="0 0 0 0 0 0 0 0 0 0 0 0 0 0 0 0 0 0 0.08 0"/>
<feBlend mode="normal" in2="BackgroundImageFix" result="effect1_dropShadow_442_1884"/>
<feBlend mode="normal" in="SourceGraphic" in2="effect1_dropShadow_442_1884" result="shape"/>
</filter>
<linearGradient id="paint0_linear_442_1884" x1="119.5" y1="237.5" x2="311" y2="116.5" gradientUnits="userSpaceOnUse">
<stop stop-color="white"/>
<stop offset="1" stop-color="white" stop-opacity="0"/>
</linearGradient>
<linearGradient id="paint1_linear_442_1884" x1="326.5" y1="-67" x2="326.5" y2="174" gradientUnits="userSpaceOnUse">
<stop stop-color="white"/>
<stop offset="1" stop-color="white" stop-opacity="0"/>
</linearGradient>
<clipPath id="clip0_442_1884">
<rect width="50" height="16" fill="white" transform="translate(285 43)"/>
</clipPath>
</defs>
</svg>
